<svg width="213" height="213" fill="none"
									xmlns="http://www.w3.org/2000/svg">
    <circle cx="106.5" cy="106.5" r="106.5" fill="#007bff" />
    <path class="trigger"
											d="M201 107.658l-.242 2.504-8.099.983 7.72 2.933-.217 2.247-8.177
											1.446 7.779 2.664-.223 2.311-10.958-3.976.233-2.408
											8.252-1.551-7.817-2.943.233-2.408L201 107.658zM198.549 127.387l-2.096
											7.619-1.928-.53 1.45-5.271-2.426-.667-1.322 4.804-1.866-.513
											1.322-4.805-2.737-.752-1.45 5.271-1.928-.531 2.096-7.618 10.885
											2.993zM194.804 140.182l-1.952 4.427c-.511 1.161-1.134 1.908-1.869
											2.242-.725.339-1.52.317-2.386-.064-.531-.234-.93-.569-1.197-1.003a2.358
											2.358 0 01-.344-1.421c-.397.53-.882.869-1.452
											1.017-.565.162-1.182.096-1.851-.199a3.704 3.704 0 01-1.119-.74 2.509
											2.509 0
											01-.629-1.052c-.13-.398-.162-.859-.096-1.382.066-.523.242-1.109.528-1.758l2.036-4.619
											10.331 4.552zm-10.509.41c-.303.688-.396 1.217-.276
											1.587.119.37.409.656.872.86.462.204.88.229
											1.253.076.382-.148.728-.572 1.036-1.27l.878-1.992-2.878-1.268-.885
											2.007zm4.487 1.695c-.264.6-.33 1.07-.198
											1.41.128.35.393.614.797.792.413.182.78.203
											1.1.062.321-.141.613-.511.878-1.111l.787-1.786-2.583-1.138-.781
											1.771zM188.776 152.942l-1.23 2.083-9.72-5.742 1.23-2.083 9.72
											5.742zM181.217 161.104l2.188-2.895 1.596 1.205-5.834 7.72-1.596-1.206
											2.188-2.895-7.411-5.6 1.458-1.93 7.411 5.601zM165.416
											168.687l2.975-2.932-1.01-2.243 1.677-1.652 4.938 10.983-1.723
											1.698-10.911-5.097 1.815-1.789 2.239 1.032zm3.85-.987l-1.929 1.901
											3.716 1.841-1.787-3.742zM162.521 180.422l2.927-2.145 1.182
											1.613-7.804 5.72-1.183-1.612 2.927-2.146-5.492-7.491 1.951-1.43 5.492
											7.491zM145.381 180.254a6.363 6.363 0 011.95-.656 4.627 4.627 0
											011.971.115c.643.186 1.26.53 1.851 1.034.597.513 1.134 1.227 1.612
											2.142l.15.285c.458.877.721 1.692.787 2.446.072.763-.002 1.457-.221
											2.081a4.758 4.758 0 01-1.037 1.671 6.375 6.375 0 01-1.652 1.227 6.244
											6.244 0 01-1.935.649 4.57 4.57 0
											01-1.964-.101c-.648-.171-1.265-.504-1.851-.998-.581-.485-1.101-1.165-1.559-2.042l-.15-.285c-.478-.915-.758-1.763-.84-2.546-.076-.772-.003-1.478.221-2.117a4.464
											4.464 0 011.03-1.685 6.22 6.22 0 011.637-1.22zm.941
											1.8c-.323.17-.606.384-.846.643a2.259 2.259 0
											00-.509.976c-.094.377-.098.81-.012 1.299.076.494.279 1.055.608
											1.684l.149.285c.309.591.64 1.049.992 1.374.343.331.693.56
											1.051.688.358.128.717.165 1.077.11.355-.04.695-.145
											1.019-.314.324-.169.608-.391.853-.665a2.2 2.2 0
											00.51-.94c.099-.367.115-.788.049-1.263-.076-.47-.269-1-.578-1.591l-.149-.285c-.329-.629-.67-1.118-1.022-1.468-.363-.344-.725-.585-1.089-.723a2.29
											2.29 0 00-1.077-.146c-.36.055-.702.167-1.026.336zM141.47
											194.906l-4.35
											1.485c-.671.229-1.284.347-1.838.354-.565.011-1.067-.079-1.507-.269a3.012
											3.012 0 01-1.133-.823 3.853 3.853 0
											01-.738-1.316c-.254-.743-.281-1.455-.082-2.136.192-.668.63-1.249
											1.314-1.743l-4.012-3.266 2.656-.906 3.577 3.141
											1.511-.516-1.334-3.907 2.29-.781 3.646 10.683zm-5.59-3.647a5.285
											5.285 0 00-1.022.451c-.26.168-.456.343-.588.524a1.134 1.134 0
											00-.199.614 2.03 2.03 0
											00.122.708c.087.254.199.466.336.635.137.169.313.285.528.348.218.073.48.092.786.055.299-.022.662-.106
											1.089-.252l1.603-.547-1.052-3.083-1.603.547zM121.929
											188.631c1.471-.263 2.637-.16 3.496.309s1.398 1.191 1.617
											2.168l-2.382.426a2.056 2.056 0 00-.29-.522 1.06 1.06 0 00-.452-.328
											2.223 2.223 0 00-.68-.141 4.813 4.813 0
											00-.951.088c-.762.137-1.289.335-1.581.594-.301.273-.417.599-.349.98.083.466.368.775.854.929.477.166
											1.215.258 2.212.276.591.003 1.123.05 1.598.14.477.1.892.255
											1.246.465.357.22.648.507.875.859.227.353.388.794.482
											1.323.086.476.068.927-.053 1.353a2.973 2.973 0 01-.662 1.15 3.983
											3.983 0 01-1.217.89 6.433 6.433 0
											01-1.707.534c-.698.125-1.315.159-1.849.102-.535-.058-.996-.194-1.384-.408a2.774
											2.774 0 01-.97-.842 3.822 3.822 0
											01-.563-1.227l2.381-.425c.142.367.362.617.659.75.298.143.755.16
											1.368.05.625-.112 1.067-.295
											1.328-.549.26-.254.36-.55.299-.889-.072-.402-.33-.689-.776-.86-.455-.159-1.136-.245-2.045-.257a10.692
											10.692 0 01-1.68-.142 3.913 3.913 0 01-1.307-.438 2.573 2.573 0
											01-.922-.85c-.248-.349-.421-.793-.517-1.333-.184-1.027.066-1.918.75-2.674.676-.743
											1.733-1.243 3.172-1.501zM111.599 192.341a2.28 2.28 0
											011.645.557c.204.193.373.421.505.683.134.273.209.57.226.892.018.322-.025.62-.129.895a2.2
											2.2 0 01-1.111 1.255c-.273.134-.57.209-.892.226a2.166 2.166 0
											01-.896-.129 2.072 2.072 0 01-.734-.445 2.063 2.063 0 01-.522-.682
											2.198 2.198 0 01-.225-.876 2.306 2.306 0 01.128-.912 2.198 2.198 0
											011.129-1.239c.262-.133.554-.208.876-.225zM104.884
											202l-2.503-.252-.952-8.102-2.964 7.708-2.246-.226-1.414-8.181-2.694
											7.768-2.311-.232 4.018-10.941 2.407.242 1.52 8.256 2.973-7.804
											2.407.242L104.884 202zM85.293 199.489l-7.612-2.124.538-1.926 5.266
											1.47.676-2.423-4.8-1.34.52-1.864 4.8
											1.34.764-2.734-5.266-1.47.537-1.926 7.612 2.125-3.035 10.872zM72.598
											195.714l-4.428-1.951c-1.16-.512-1.908-1.135-2.242-1.869-.339-.725-.317-1.521.064-2.386.234-.532.569-.931
											1.003-1.197.421-.261.894-.376
											1.42-.344-.529-.397-.868-.882-1.016-1.452-.162-.565-.096-1.182.199-1.851.195-.443.442-.816.74-1.119a2.52
											2.52 0 011.053-.629c.397-.13.858-.162 1.381-.096s1.11.242
											1.759.529l4.62 2.035-4.553
											10.33zm-.41-10.508c-.689-.303-1.218-.395-1.588-.276-.37.119-.656.41-.86.872-.204.462-.229.88-.076
											1.253.148.382.572.728 1.27 1.036l1.993.877
											1.268-2.877-2.007-.885zm-1.695
											4.487c-.6-.264-1.07-.33-1.41-.198-.35.127-.615.393-.793.796-.182.413-.202.78-.062
											1.101.141.32.512.613 1.112.877l1.785.787
											1.139-2.582-1.771-.781zM59.757 189.615l-2.078-1.238 5.778-9.698 2.078
											1.238-5.778 9.698zM51.629 182.03l2.887 2.198-1.212 1.591-7.699-5.862
											1.212-1.591 2.887 2.198 5.628-7.39 1.925 1.466-5.628 7.39zM44.143
											166.242l2.921 2.986 2.246-1.002 1.647 1.683-11.002 4.897-1.691-1.729
											5.136-10.891 1.782 1.821-1.039 2.235zm.973 3.854l-1.895-1.937-1.854
											3.709 3.749-1.772zM32.415 163.314l2.135 2.934-1.618 1.177-5.692-7.825
											1.617-1.176 2.135 2.934 7.512-5.464 1.423 1.956-7.512 5.464zM32.705
											146.297c.328.629.547 1.279.656 1.95a4.627 4.627 0 01-.116
											1.971c-.185.643-.53 1.26-1.034 1.851-.513.597-1.227 1.134-2.142
											1.612l-.285.15c-.877.458-1.692.72-2.446.787-.763.072-1.457-.002-2.082-.221a4.75
											4.75 0 01-1.67-1.037 6.398 6.398 0 01-1.228-1.651 6.238 6.238 0
											01-.649-1.936 4.567 4.567 0
											01.102-1.964c.17-.647.503-1.264.997-1.85.485-.581 1.166-1.101
											2.042-1.56l.286-.149c.915-.478 1.763-.758 2.545-.84.773-.077
											1.48-.003 2.118.221a4.456 4.456 0 011.685 1.03 6.221 6.221 0 011.22
											1.636zm-1.801.942a3.12 3.12 0 00-.643-.847 2.256 2.256 0
											00-.976-.508c-.377-.094-.81-.099-1.299-.013-.494.077-1.055.279-1.684.608l-.286.15c-.59.309-1.049.639-1.374.991-.33.343-.56.693-.688
											1.052a2.178 2.178 0 00-.11 1.076c.04.355.145.695.314
											1.019.17.324.392.608.665.853.26.241.573.411.94.51.367.099.789.115
											1.263.049.47-.076 1-.269 1.591-.578l.286-.149c.63-.329 1.118-.67
											1.468-1.022.344-.362.585-.725.723-1.088.137-.363.186-.723.146-1.078a3.255
											3.255 0 00-.336-1.025zM18.033
											142.344l-1.468-4.356c-.227-.672-.343-1.285-.348-1.839-.009-.565.083-1.066.275-1.506.183-.435.458-.812.828-1.129a3.84
											3.84 0 011.318-.734c.744-.251 1.456-.275 2.137-.074.667.195 1.247.635
											1.739 1.32l3.28-3.999.897 2.659-3.155 3.565.51 1.513 3.912-1.318.773
											2.292-10.698 3.606zm3.669-5.576a5.29 5.29 0 00-.448-1.024 2.172 2.172
											0 00-.522-.59 1.14 1.14 0 00-.612-.202 2.047 2.047 0 00-.709.12 2.041
											2.041 0
											00-.636.334c-.17.136-.287.312-.35.526-.074.218-.094.48-.059.786.021.299.104.662.249
											1.09l.54 1.605 3.088-1.041-.541-1.604zM24.35 122.808c.257 1.472.15
											2.637-.323 3.494-.472.858-1.197 1.394-2.174
											1.608l-.417-2.382c.204-.08.378-.176.522-.288a1.07 1.07 0
											00.33-.451c.077-.188.125-.415.144-.68.008-.263-.02-.58-.085-.951-.133-.762-.329-1.29-.588-1.583-.27-.302-.597-.42-.978-.353-.466.081-.777.365-.932.851-.168.476-.262
											1.213-.285 2.21a8.915 8.915 0 01-.146 1.597 4.074 4.074 0 01-.47
											1.245 2.74 2.74 0 01-.863.871c-.353.226-.794.385-1.324.477a2.975
											2.975 0 01-1.353-.058 2.983 2.983 0 01-1.148-.666 3.99 3.99 0
											01-.885-1.221 6.449 6.449 0
											01-.528-1.708c-.122-.699-.153-1.316-.094-1.85.06-.534.197-.995.413-1.382.214-.398.496-.72.846-.967a3.83
											3.83 0 011.229-.558l.416
											2.383c-.368.14-.619.359-.753.655-.144.298-.162.754-.055
											1.369.11.624.29 1.067.544
											1.329.253.261.549.362.888.303.402-.071.69-.328.863-.773.16-.454.249-1.135.265-2.044.01-.624.06-1.184.148-1.679.086-.506.234-.942.443-1.306.207-.374.492-.68.854-.918.35-.247.795-.418
											1.335-.512 1.027-.18 1.918.074 2.671.76.74.679 1.237 1.738 1.49
											3.178zM20.665 112.622c.017.322-.027.626-.132.911a2.474 2.474 0
											01-.431.732 2.486 2.486 0 01-.685.503 2.293 2.293 0 01-.894.222 2.175
											2.175 0 01-.894-.133 2.212 2.212 0 01-.733-.431 2.308 2.308 0
											01-.518-.685 2.294 2.294 0
											01-.223-.893c-.016-.322.028-.62.133-.894.104-.285.253-.53.448-.733.183-.214.41-.387.684-.519a2.17
											2.17 0 01.877-.222 2.3 2.3 0 01.911.132 2.2 2.2 0 011.236
											1.133c.131.262.205.555.221.877zM11 105.676l.261-2.502
											8.107-.92-7.698-2.993.235-2.246 8.187-1.382-7.758-2.724.241-2.31
											10.927 4.06-.252 2.406-8.263 1.488 7.794 3.003-.251 2.406L11
											105.676zM13.498 86.4l2.124-7.612 1.927.538-1.47 5.266 2.423.676
											1.34-4.8 1.864.52-1.34 4.8 2.734.763 1.47-5.265 1.926.537-2.125
											7.611L13.498 86.4zM17.272 73.629l1.968-4.42c.516-1.159 1.141-1.904
											1.877-2.236.727-.335 1.522-.31 2.386.074.53.236.928.572 1.193
											1.008.26.421.373.895.339 1.421.4-.528.885-.865 1.456-1.011.566-.16
											1.182-.092 1.85.206.442.196.814.444 1.117.744.292.294.5.646.625
											1.054.128.399.158.86.09 1.383-.068.522-.246 1.108-.534 1.756l-2.053
											4.611-10.314-4.59zm10.51-.37c.306-.688.4-1.217.282-1.587-.117-.37-.407-.658-.869-.864-.461-.205-.879-.232-1.252-.08-.384.147-.73.569-1.04
											1.266l-.886 1.99 2.873 1.278.892-2.004zM23.3
											71.545c.267-.599.335-1.069.204-1.41-.127-.35-.391-.615-.794-.794-.413-.184-.78-.206-1.1-.066-.321.14-.615.509-.882
											1.108l-.794 1.782 2.579 1.148.787-1.768zM23.488 60.611l1.246-2.073
											9.678 5.813-1.246 2.073-9.678-5.813zM30.994 52.627l-2.21
											2.879-1.586-1.217 5.89-7.677 1.587 1.217-2.209 2.879 7.37 5.654-1.472
											1.92-7.37-5.655zM46.899 45.051l-2.996 2.91.993 2.25-1.689
											1.64-4.858-11.018 1.735-1.685 10.874 5.175L49.13 46.1 46.9
											45.05zm-3.858.96l1.944-1.888-3.703-1.867 1.76 3.754zM49.518
											33.576l-2.934 2.135-1.177-1.618 7.826-5.691 1.176 1.617-2.934 2.134
											5.464 7.512-1.956 1.423-5.465-7.512zM66.711
											33.733c-.63.327-1.28.543-1.952.649a4.63 4.63 0
											01-1.971-.123c-.643-.188-1.258-.535-1.848-1.04-.594-.516-1.129-1.232-1.604-2.148l-.148-.287c-.455-.878-.715-1.694-.779-2.448-.069-.763.008-1.457.23-2.08a4.742
											4.742 0 011.043-1.667 6.382 6.382 0 011.656-1.222 6.236 6.236 0
											011.938-.64 4.565 4.565 0 011.964.107c.646.174 1.262.509 1.846
											1.005.58.487 1.097 1.17 1.552 2.047l.149.287c.475.916.751 1.766.83
											2.548.074.773-.002 1.479-.229 2.117a4.462 4.462 0 01-1.035 1.681
											6.238 6.238 0 01-1.642 1.214zm-.935-1.804a3.11 3.11 0
											00.85-.64c.245-.273.416-.597.511-.974.096-.376.102-.81.018-1.298-.075-.494-.276-1.057-.602-1.687l-.148-.286c-.307-.592-.636-1.05-.987-1.378-.342-.331-.691-.562-1.049-.691a2.18
											2.18 0 00-1.076-.114 2.88 2.88 0
											00-1.02.31c-.325.169-.61.39-.856.662a2.198 2.198 0
											00-.513.938c-.1.367-.118.788-.054 1.263.074.47.265 1 .572
											1.593l.148.286c.327.63.666 1.12 1.017 1.471.36.346.723.588
											1.085.727.363.14.722.19 1.077.15.36-.053.703-.164 1.027-.332zM70.83
											18.99l4.36-1.452c.674-.224 1.287-.338 1.842-.34.564-.007 1.066.086
											1.504.28.435.184.81.461 1.127.832.313.36.555.8.729 1.321.248.745.27
											1.457.065 2.137-.197.666-.64 1.244-1.327 1.733l3.987
											3.296-2.662.886-3.554-3.168-1.515.504 1.304
											3.917-2.295.764-3.566-10.71zm5.562 3.689c.428-.143.77-.29
											1.025-.443.262-.167.46-.34.592-.52.13-.19.197-.395.204-.612a2.047
											2.047 0 00-.117-.709 2.045 2.045 0 00-.331-.637 1.04 1.04 0
											00-.525-.353c-.218-.075-.48-.095-.785-.061-.3.02-.664.102-1.092.244l-1.607.535
											1.03 3.09 1.606-.534zM90.468
											25.33c-1.473.252-2.638.14-3.493-.336-.856-.475-1.39-1.202-1.6-2.18l2.384-.408c.079.205.174.38.286.524.112.145.262.255.45.332.187.077.414.126.679.146.263.01.58-.018.951-.081.763-.13
											1.292-.325
											1.586-.582.303-.27.422-.596.357-.977-.08-.466-.362-.778-.847-.935-.477-.17-1.213-.267-2.21-.293a8.924
											8.924 0 01-1.597-.152 4.081 4.081 0 01-1.243-.475 2.743 2.743 0
											01-.868-.866c-.224-.354-.382-.796-.472-1.326a2.983 2.983 0
											01.063-1.353c.134-.426.358-.808.671-1.145.322-.35.73-.643
											1.224-.88a6.454 6.454 0 011.71-.522c.7-.12 1.317-.148
											1.851-.087s.995.2 1.38.418c.398.216.719.5.964.85s.43.76.554
											1.23l-2.384.408c-.14-.369-.357-.62-.653-.755-.298-.146-.754-.166-1.369-.06-.625.106-1.069.286-1.331.538-.262.252-.364.547-.306.886.068.403.325.692.77.867.453.162
											1.134.253 2.042.272.624.013 1.184.065 1.68.155.505.088.94.237
											1.303.448.374.209.679.494.916.858.245.35.414.796.506 1.336.176
											1.028-.08 1.917-.77 2.668-.682.738-1.743 1.23-3.184 1.477zM100.544
											21.684a2.295 2.295 0 01-.91-.135 2.467 2.467 0 01-.731-.435 2.467
											2.467 0 01-.5-.687 2.292 2.292 0
											01-.22-.894c-.014-.322.031-.62.137-.894a2.203 2.203 0
											011.12-1.247c.275-.13.573-.204.895-.218.322-.015.62.03.894.136.285.105.529.255.731.45.213.184.385.413.517.686.13.263.203.556.218.878.015.322-.03.626-.136.91a2.196
											2.196 0 01-1.137 1.231 2.18 2.18 0 01-.878.219zM107.04
											12l2.503.261.92 8.106 2.993-7.697 2.246.235 1.383 8.186 2.723-7.757
											2.31.241-4.06 10.926-2.406-.252-1.488-8.262-3.003
											7.793-2.406-.251L107.04 12zM126.856 14.575l7.603 2.154-.545
											1.923-5.26-1.49-.686 2.421 4.795 1.358-.527 1.862-4.795-1.358-.774
											2.73 5.261 1.49-.545 1.925-7.604-2.154 3.077-10.861zM139.675
											18.407l4.412 1.983c1.158.52 1.9 1.15 2.229 1.887.333.727.306
											1.522-.082 2.385-.238.53-.576.926-1.012 1.19a2.355 2.355 0
											01-1.423.332c.527.402.862.888 1.006 1.46.158.566.087 1.183-.213
											1.85a3.71 3.71 0 01-.748 1.113 2.514 2.514 0
											01-1.058.62c-.399.128-.859.156-1.382.087-.523-.07-1.108-.25-1.755-.542l-4.604-2.07
											4.63-10.295zm.331 10.51c.686.308 1.215.405
											1.586.288.37-.116.659-.405.866-.865.207-.461.236-.879.086-1.253-.146-.383-.567-.732-1.263-1.045l-1.986-.893-1.289
											2.868 2 .9zm1.729-4.474c.598.269 1.068.338
											1.409.209.351-.125.617-.389.797-.79.186-.413.209-.78.071-1.1-.139-.322-.507-.618-1.105-.887l-1.78-.8-1.157
											2.574 1.765.794zM152.744 24.709l2.069 1.253-5.849 9.655-2.069-1.253
											5.849-9.655zM160.686 32.235l-2.871-2.219 1.223-1.582 7.656
											5.918-1.223 1.582-2.871-2.22-5.682 7.35-1.914-1.48
											5.682-7.349zM167.847 47.797l-2.91-2.996-2.25.994-1.641-1.689
											11.02-4.858 1.685 1.736-5.176 10.872-1.775-1.827
											1.047-2.232zm-.959-3.857l1.888 1.943 1.867-3.702-3.755 1.76zM179.714
											50.897l-2.124-2.942 1.622-1.17 5.663 7.845-1.621
											1.17-2.124-2.942-7.532 5.437-1.416-1.962 7.532-5.436zM179.492
											68.116a6.375 6.375 0 01-.641-1.955 4.627 4.627 0
											01.13-1.97c.19-.642.539-1.256 1.047-1.844.518-.592 1.236-1.124
											2.154-1.595l.287-.148c.88-.451 1.697-.708 2.451-.77.764-.065
											1.457.014 2.08.238a4.739 4.739 0 011.663 1.05 6.403 6.403 0 011.216
											1.66c.324.63.535 1.277.634 1.94a4.566 4.566 0 01-.116
											1.963c-.175.646-.513 1.26-1.011 1.843-.489.577-1.174 1.092-2.054
											1.544l-.286.147c-.919.472-1.769.745-2.552.821-.774.071-1.479-.008-2.116-.236a4.466
											4.466 0 01-1.678-1.042 6.256 6.256 0
											01-1.208-1.646zm1.808-.928c.167.325.379.608.637.85.272.248.596.42.972.517.376.097.809.104
											1.298.022.495-.073 1.058-.271 1.689-.596l.287-.147c.593-.305
											1.053-.632
											1.381-.981.333-.34.565-.69.696-1.047s.17-.715.118-1.075a2.89 2.89 0
											00-.307-1.021 3.006 3.006 0 00-.658-.859 2.205 2.205 0
											00-.936-.516c-.367-.102-.788-.121-1.263-.058-.471.072-1.003.26-1.595.565l-.287.148c-.632.324-1.123.66-1.475
											1.01-.347.36-.591.721-.731 1.083-.141.362-.192.721-.155
											1.077.052.36.162.702.329 1.028zM194.2 72.282l1.435 4.366c.222.674.333
											1.288.334 1.843.005.564-.091 1.065-.286 1.503a3.014 3.014 0 01-.836
											1.123 3.842 3.842 0
											01-1.324.724c-.746.245-1.458.264-2.138.057-.665-.2-1.241-.644-1.728-1.333l-3.311
											3.974-.877-2.665 3.182-3.541-.498-1.517-3.922 1.29-.756-2.299
											10.725-3.525zm-3.711 5.548c.141.43.288.772.44
											1.027.165.263.338.46.518.594.189.13.393.199.611.206.217.008.454-.03.709-.114.256-.084.468-.194.639-.329.171-.135.289-.31.354-.523.076-.218.097-.48.065-.786-.02-.299-.1-.663-.241-1.092l-.528-1.609-3.095
											1.018.528 1.608zM187.694
											91.477c-.252-1.473-.14-2.638.335-3.493.476-.856 1.203-1.39
											2.181-1.6l.408 2.384a2.052 2.052 0 00-.524.286 1.07 1.07 0 00-.332.45
											2.238 2.238 0 00-.146.679c-.009.263.018.58.081.951.131.763.325
											1.292.582
											1.586.27.303.596.422.977.356.467-.08.778-.362.935-.847.17-.476.267-1.212.293-2.21.008-.59.059-1.122.153-1.596a4.09
											4.09 0 01.474-1.243c.223-.354.512-.643.866-.868.355-.224.797-.381
											1.327-.472a2.98 2.98 0 011.352.064 2.98 2.98 0
											011.146.67c.349.323.643.73.88 1.225.237.493.411 1.064.522
											1.71.119.7.148 1.316.087 1.85-.062.534-.201.994-.419 1.38a2.764 2.764
											0
											01-.849.964c-.351.245-.761.43-1.231.554l-.408-2.385c.369-.139.621-.356.756-.652.145-.298.166-.754.061-1.368-.107-.626-.287-1.07-.539-1.332-.252-.262-.548-.364-.887-.306-.403.069-.691.325-.866.77-.163.453-.254
											1.134-.273 2.042a10.818 10.818 0 01-.154 1.679c-.088.506-.238.94-.448
											1.303-.209.374-.495.68-.858.916-.351.245-.797.414-1.337.507-1.028.176-1.917-.081-2.668-.771-.738-.681-1.23-1.742-1.477-3.183zM191.37
											102.07a2.297 2.297 0
											01.139-.91c.107-.273.252-.516.437-.728.196-.202.426-.368.689-.498a2.3
											2.3 0
											01.895-.215c.322-.014.62.032.894.14.284.106.527.251.729.436.212.196.384.425.513.689.13.274.202.572.216.895.013.322-.033.62-.14.893a2.077
											2.077 0 01-.453.73 2.08 2.08 0
											01-.689.513c-.263.13-.556.201-.878.215a2.291 2.291 0 01-.91-.139 2.32
											2.32 0 01-.73-.453 2.213 2.213 0 01-.497-.689 2.181 2.181 0
											01-.215-.879z"
											fill="#32FFFF" />
    <g clip-path="url(#clip0)" class="envelope">
        <path
													d="M98.295 92.685h17.41a1.758 1.758 0 100-3.516h-17.41a1.758 1.758
													0 000 3.516zM98.295 101.07h17.41a1.758 1.758 0
													100-3.516h-17.41a1.758 1.758 0 000 3.516z" />
        <path class="envelope"
														d="M135.916
														94.155l-7.969-3.306v-10.69c0-.972-.787-1.759-1.758-1.759H87.811c-.97
														0-1.758.787-1.758 1.758v10.69l-7.969 3.307A1.758 1.758 0 0077
														95.78v38.063c0 .971.787 1.758 1.758 1.758h56.484c.971 0 1.758-.787
														1.758-1.758V95.779c0-.71-.428-1.351-1.084-1.624zM80.516 100l16.338
														16.207-16.338 13.843v-30.05zM107 112.218l23.448 19.866H83.552L107
														112.218zm10.146 3.988l16.338-16.207v30.05l-16.338-13.843zM132.13
														96.39l-4.183 4.15v-5.885l4.183 1.736zm-7.699-14.474v22.111l-9.978
														9.898-6.317-5.352a1.758 1.758 0 00-2.272 0l-6.317
														5.352-9.978-9.898V81.916h34.862zM86.053 100.54l-4.183-4.15
														4.183-1.735v5.885z" />
    </g>
    <defs>
        <clippath id="clip0">
            <path transform="translate(77 77)" d="M0 0h60v60H0z" />
        </clippath>
    </defs>
</svg>