	<svg width="28" height="28" fill="none"
							xmlns="http://www.w3.org/2000/svg">
							<path
								d="M25.54 4.156H2.46A2.465 2.465 0 000 6.617v14.766c0 1.36 1.11 2.46
								2.46 2.46h23.08a2.464 2.464 0
								002.46-2.46V6.617c0-1.35-1.097-2.46-2.46-2.46zm-.346
								1.64c-.502.501-9.155 9.108-9.454 9.405a2.445 2.445 0 01-1.74.721 2.446
								2.446 0 01-1.742-.722L2.806 5.797h22.388zM1.641 21.05V6.952l7.09
								7.052-7.09 7.045zm1.166 1.154l7.086-7.042 1.207 1.2a4.074 4.074 0 002.9
								1.202 4.073 4.073 0 002.899-1.2l1.208-1.202 7.086
								7.042H2.807zm23.552-1.154l-7.09-7.045 7.09-7.052V21.05z"
								fill="#32FFFF" />
							</svg>